<?xml version="1.0" encoding="UTF-8" standalone="no" ?>
<!DOCTYPE svg PUBLIC "-//W3C//DTD SVG 1.1//EN" "http://www.w3.org/Graphics/SVG/1.1/DTD/svg11.dtd">
<svg xmlns="http://www.w3.org/2000/svg" xmlns:xlink="http://www.w3.org/1999/xlink" version="1.1" width="140" height="140" viewBox="29 21 250 250" xml:space="preserve">
<desc>Created with Fabric.js 3.6.6</desc>
<defs>
</defs>
<g transform="matrix(1 0 0 1 151.11 152)"  >
<g style=""   >
		<g transform="matrix(-0.69 0 0 0.56 -0.11 0)"  >
<path style="stroke: rgb(255,255,255); stroke-width: 1.6; stroke-dasharray: none; stroke-linecap: round; stroke-dashoffset: 0; stroke-linejoin: round; stroke-miterlimit: 4; fill: rgb(128,0,0); fill-rule: nonzero; opacity: 1;"  transform=" translate(-447.83, -555.04)" d="m 447.83376 669.09921 c -80.63119 -57.03115 -80.63119 -57.03115 -80.63119 -199.60903 c 34.55623 0 46.07497 0 80.63119 -28.51558 m 0 228.12461 c 80.6312 -57.03115 80.6312 -57.03115 80.6312 -199.60903 c -34.55623 0 -46.07497 0 -80.6312 -28.51558" stroke-linecap="round" />
</g>
		<g transform="matrix(1.33 0 0 1.33 11.89 -4)"  >
<ellipse style="stroke: rgb(255,255,255); stroke-width: 6; stroke-dasharray: none; stroke-linecap: butt; stroke-dashoffset: 0; stroke-linejoin: miter; stroke-miterlimit: 4; fill: none; fill-rule: nonzero; opacity: 1;"  cx="0" cy="0" rx="11.999999" ry="12" />
</g>
		<g transform="matrix(1 0 0 1 -16.11 -3.99)"  >
<path style="stroke: rgb(255,255,255); stroke-width: 0; stroke-dasharray: none; stroke-linecap: square; stroke-dashoffset: 0; stroke-linejoin: miter; stroke-miterlimit: 4; fill: rgb(255,255,255); fill-rule: nonzero; opacity: 1;"  transform=" translate(-65.75, -77.46)" d="m 81.72523 81.471945 c 0 11.019828 -4.991003 16.028841 -15.97121 16.028841 c -10.980207 0 -15.97121 -5.009013 -15.97121 -16.028841 l 0 -24.043262 l 7.985605 0 l 0 24.043262 c 0 7.012618 0.9982 8.014421 7.985605 8.014421 c 6.987404 0 7.985605 -1.001803 7.985605 -8.014421 l 0 -24.043262 l 7.985605 0 z" stroke-linecap="round" />
</g>
		<g transform="matrix(1 0 0 1 41.19 -5.86)" style=""  >
		<text xml:space="preserve" font-family="'Open Sans', sans-serif" font-size="25" font-style="normal" font-weight="normal" style="stroke: none; stroke-width: 1; stroke-dasharray: none; stroke-linecap: butt; stroke-dashoffset: 0; stroke-linejoin: miter; stroke-miterlimit: 4; fill: rgb(255,255,255); fill-rule: nonzero; opacity: 1; white-space: pre;" ><tspan x="-14.6" y="7.85" >++</tspan></text>
</g>
</g>
</g>
</svg>